# xmcd
#
# Track frame offsets:
#	150
#	10373
#	24663
#	35663
#	49293
#	58458
#	69645
#	85883
#	97020
#	106478
#	120218
#	134058
#	145020
#	157760
#	172625
#	184178
#
# Disc length: 2645 seconds
#
# Revision: 0
# Processed by: cddbd v1.5PL3 Copyright (c) Steve Scherf et al.
# Submitted via: dBpowerAMP V4.0
#
DISCID=dc0a5310
DTITLE=Howard Crockett - The Legend Mr. Honky Tonk Man
DYEAR=1990
DGENRE=Country
TTITLE0=I Feel More Like Myself (Than I Did A While Ago)
TTITLE1=Make Me Understand
TTITLE2=Love Thy Neighbor
TTITLE3=Last Will And Testimony (Of A Drinking Man)
TTITLE4=Honky Tonk Man
TTITLE5=It's A Bad Year For Losers
TTITLE6=Sunday Morning
TTITLE7=When I Grow Too Old
TTITLE8=Nine Miles Of Bad Road
TTITLE9=Daddy Poured The Wine
TTITLE10=You Can't Get Around To 'Em All
TTITLE11=Honey I Got A Feelin'
TTITLE12=Cajun Fever
TTITLE13=The Big Day
TTITLE14=I Wanna Go Back
TTITLE15=Mountain
EXTD=
EXTT0=
EXTT1=
EXTT2=
EXTT3=
EXTT4=
EXTT5=
EXTT6=
EXTT7=
EXTT8=
EXTT9=
EXTT10=
EXTT11=
EXTT12=
EXTT13=
EXTT14=
EXTT15=
PLAYORDER=
